<mxfile host="app.diagrams.net" modified="2022-11-27T16:33:20.397Z" agent="5.0 (Windows NT 10.0; Win64; x64) AppleWebKit/537.36 (KHTML, like Gecko) Chrome/106.0.0.0 Safari/537.36 OPR/92.0.0.0" version="20.6.0" etag="F_4_T_cvqNDrqrTBLBqI" type="github">
  <diagram id="X3nRgyIcasQ5aEZp6dVY" name="Page-1">
    <mxGraphModel dx="1381" dy="764" grid="1" gridSize="10" guides="1" tooltips="1" connect="1" arrows="1" fold="1" page="1" pageScale="1" pageWidth="850" pageHeight="1100" math="0" shadow="0">
      <root>
        <mxCell id="0" />
        <mxCell id="1" parent="0" />
        <mxCell id="chPL-nH-4VTMWs8eqsPG-1" value="" style="shape=process;whiteSpace=wrap;html=1;backgroundOutline=1;" vertex="1" parent="1">
          <mxGeometry x="80" y="280" width="160" height="80" as="geometry" />
        </mxCell>
        <mxCell id="chPL-nH-4VTMWs8eqsPG-2" value="Menu" style="text;html=1;strokeColor=none;fillColor=none;align=center;verticalAlign=middle;whiteSpace=wrap;rounded=0;" vertex="1" parent="1">
          <mxGeometry x="130" y="240" width="60" height="30" as="geometry" />
        </mxCell>
        <mxCell id="chPL-nH-4VTMWs8eqsPG-4" value="" style="shape=process;whiteSpace=wrap;html=1;backgroundOutline=1;" vertex="1" parent="1">
          <mxGeometry x="280" y="280" width="160" height="80" as="geometry" />
        </mxCell>
        <mxCell id="chPL-nH-4VTMWs8eqsPG-5" value="Notification" style="text;html=1;strokeColor=none;fillColor=none;align=center;verticalAlign=middle;whiteSpace=wrap;rounded=0;" vertex="1" parent="1">
          <mxGeometry x="330" y="250" width="60" height="30" as="geometry" />
        </mxCell>
        <mxCell id="chPL-nH-4VTMWs8eqsPG-6" value="" style="shape=process;whiteSpace=wrap;html=1;backgroundOutline=1;" vertex="1" parent="1">
          <mxGeometry x="280" y="400" width="160" height="80" as="geometry" />
        </mxCell>
        <mxCell id="chPL-nH-4VTMWs8eqsPG-9" value="" style="endArrow=classic;html=1;rounded=0;exitX=0.5;exitY=0;exitDx=0;exitDy=0;entryX=0.5;entryY=1;entryDx=0;entryDy=0;" edge="1" parent="1" source="chPL-nH-4VTMWs8eqsPG-6" target="chPL-nH-4VTMWs8eqsPG-4">
          <mxGeometry width="50" height="50" relative="1" as="geometry">
            <mxPoint x="400" y="250" as="sourcePoint" />
            <mxPoint x="450" y="200" as="targetPoint" />
          </mxGeometry>
        </mxCell>
        <mxCell id="chPL-nH-4VTMWs8eqsPG-10" value="Alert over usage" style="text;html=1;strokeColor=none;fillColor=none;align=center;verticalAlign=middle;whiteSpace=wrap;rounded=0;" vertex="1" parent="1">
          <mxGeometry x="330" y="480" width="60" height="50" as="geometry" />
        </mxCell>
        <mxCell id="chPL-nH-4VTMWs8eqsPG-11" value="" style="shape=process;whiteSpace=wrap;html=1;backgroundOutline=1;" vertex="1" parent="1">
          <mxGeometry x="600" y="280" width="160" height="80" as="geometry" />
        </mxCell>
        <mxCell id="chPL-nH-4VTMWs8eqsPG-12" value="" style="endArrow=classic;html=1;rounded=0;exitX=1;exitY=0.5;exitDx=0;exitDy=0;entryX=0;entryY=0.5;entryDx=0;entryDy=0;" edge="1" parent="1" source="chPL-nH-4VTMWs8eqsPG-4" target="chPL-nH-4VTMWs8eqsPG-11">
          <mxGeometry width="50" height="50" relative="1" as="geometry">
            <mxPoint x="400" y="400" as="sourcePoint" />
            <mxPoint x="450" y="350" as="targetPoint" />
          </mxGeometry>
        </mxCell>
        <mxCell id="chPL-nH-4VTMWs8eqsPG-13" value="view information" style="text;html=1;strokeColor=none;fillColor=none;align=center;verticalAlign=middle;whiteSpace=wrap;rounded=0;" vertex="1" parent="1">
          <mxGeometry x="650" y="250" width="60" height="30" as="geometry" />
        </mxCell>
        <mxCell id="chPL-nH-4VTMWs8eqsPG-14" value="" style="shape=process;whiteSpace=wrap;html=1;backgroundOutline=1;" vertex="1" parent="1">
          <mxGeometry x="80" y="400" width="160" height="80" as="geometry" />
        </mxCell>
        <mxCell id="chPL-nH-4VTMWs8eqsPG-15" value="" style="endArrow=classic;html=1;rounded=0;entryX=0.5;entryY=0;entryDx=0;entryDy=0;" edge="1" parent="1" source="chPL-nH-4VTMWs8eqsPG-1" target="chPL-nH-4VTMWs8eqsPG-14">
          <mxGeometry width="50" height="50" relative="1" as="geometry">
            <mxPoint x="400" y="400" as="sourcePoint" />
            <mxPoint x="450" y="350" as="targetPoint" />
          </mxGeometry>
        </mxCell>
        <mxCell id="chPL-nH-4VTMWs8eqsPG-17" value="Manual mock information" style="text;html=1;strokeColor=none;fillColor=none;align=center;verticalAlign=middle;whiteSpace=wrap;rounded=0;" vertex="1" parent="1">
          <mxGeometry x="80" y="490" width="60" height="50" as="geometry" />
        </mxCell>
        <mxCell id="chPL-nH-4VTMWs8eqsPG-19" value="" style="endArrow=classic;startArrow=classic;html=1;rounded=0;exitX=0.5;exitY=1;exitDx=0;exitDy=0;" edge="1" parent="1" source="chPL-nH-4VTMWs8eqsPG-14">
          <mxGeometry width="50" height="50" relative="1" as="geometry">
            <mxPoint x="400" y="560" as="sourcePoint" />
            <mxPoint x="160" y="600" as="targetPoint" />
          </mxGeometry>
        </mxCell>
        <mxCell id="chPL-nH-4VTMWs8eqsPG-20" value="" style="shape=process;whiteSpace=wrap;html=1;backgroundOutline=1;" vertex="1" parent="1">
          <mxGeometry x="80" y="600" width="160" height="80" as="geometry" />
        </mxCell>
        <mxCell id="chPL-nH-4VTMWs8eqsPG-21" value="Toogles" style="text;html=1;strokeColor=none;fillColor=none;align=center;verticalAlign=middle;whiteSpace=wrap;rounded=0;" vertex="1" parent="1">
          <mxGeometry x="130" y="670" width="60" height="50" as="geometry" />
        </mxCell>
        <mxCell id="chPL-nH-4VTMWs8eqsPG-22" value="" style="shape=parallelogram;perimeter=parallelogramPerimeter;whiteSpace=wrap;html=1;fixedSize=1;" vertex="1" parent="1">
          <mxGeometry x="305" y="610" width="120" height="60" as="geometry" />
        </mxCell>
        <mxCell id="chPL-nH-4VTMWs8eqsPG-24" value="turn off and on" style="text;html=1;strokeColor=none;fillColor=none;align=center;verticalAlign=middle;whiteSpace=wrap;rounded=0;" vertex="1" parent="1">
          <mxGeometry x="335" y="570" width="60" height="30" as="geometry" />
        </mxCell>
        <mxCell id="chPL-nH-4VTMWs8eqsPG-25" value="" style="endArrow=classic;startArrow=classic;html=1;rounded=0;exitX=1;exitY=0.5;exitDx=0;exitDy=0;entryX=0;entryY=0.5;entryDx=0;entryDy=0;" edge="1" parent="1" source="chPL-nH-4VTMWs8eqsPG-20" target="chPL-nH-4VTMWs8eqsPG-22">
          <mxGeometry width="50" height="50" relative="1" as="geometry">
            <mxPoint x="400" y="570" as="sourcePoint" />
            <mxPoint x="450" y="520" as="targetPoint" />
          </mxGeometry>
        </mxCell>
        <mxCell id="chPL-nH-4VTMWs8eqsPG-26" value="" style="shape=process;whiteSpace=wrap;html=1;backgroundOutline=1;" vertex="1" parent="1">
          <mxGeometry x="520" y="440" width="120" height="60" as="geometry" />
        </mxCell>
        <mxCell id="chPL-nH-4VTMWs8eqsPG-27" value="" style="shape=process;whiteSpace=wrap;html=1;backgroundOutline=1;" vertex="1" parent="1">
          <mxGeometry x="720" y="440" width="120" height="60" as="geometry" />
        </mxCell>
        <mxCell id="chPL-nH-4VTMWs8eqsPG-28" value="" style="endArrow=classic;startArrow=classic;html=1;rounded=0;entryX=0.5;entryY=1;entryDx=0;entryDy=0;exitX=0.5;exitY=0;exitDx=0;exitDy=0;" edge="1" parent="1" source="chPL-nH-4VTMWs8eqsPG-26" target="chPL-nH-4VTMWs8eqsPG-11">
          <mxGeometry width="50" height="50" relative="1" as="geometry">
            <mxPoint x="400" y="570" as="sourcePoint" />
            <mxPoint x="450" y="520" as="targetPoint" />
            <Array as="points">
              <mxPoint x="580" y="400" />
              <mxPoint x="680" y="400" />
            </Array>
          </mxGeometry>
        </mxCell>
        <mxCell id="chPL-nH-4VTMWs8eqsPG-29" value="" style="endArrow=classic;html=1;rounded=0;entryX=0.5;entryY=0;entryDx=0;entryDy=0;" edge="1" parent="1" target="chPL-nH-4VTMWs8eqsPG-27">
          <mxGeometry width="50" height="50" relative="1" as="geometry">
            <mxPoint x="680" y="400" as="sourcePoint" />
            <mxPoint x="450" y="520" as="targetPoint" />
            <Array as="points">
              <mxPoint x="780" y="400" />
            </Array>
          </mxGeometry>
        </mxCell>
        <mxCell id="chPL-nH-4VTMWs8eqsPG-30" value="" style="endArrow=classic;startArrow=classic;html=1;rounded=0;exitX=1;exitY=0.75;exitDx=0;exitDy=0;entryX=0;entryY=0.5;entryDx=0;entryDy=0;" edge="1" parent="1" source="chPL-nH-4VTMWs8eqsPG-4" target="chPL-nH-4VTMWs8eqsPG-20">
          <mxGeometry width="50" height="50" relative="1" as="geometry">
            <mxPoint x="400" y="410" as="sourcePoint" />
            <mxPoint x="450" y="360" as="targetPoint" />
            <Array as="points">
              <mxPoint x="490" y="340" />
              <mxPoint x="490" y="720" />
              <mxPoint x="10" y="720" />
              <mxPoint x="10" y="640" />
            </Array>
          </mxGeometry>
        </mxCell>
        <mxCell id="chPL-nH-4VTMWs8eqsPG-31" value="&lt;h1&gt;Backend Features: HomE&lt;/h1&gt;" style="text;html=1;strokeColor=none;fillColor=none;spacing=5;spacingTop=-20;whiteSpace=wrap;overflow=hidden;rounded=0;" vertex="1" parent="1">
          <mxGeometry y="20" width="210" height="60" as="geometry" />
        </mxCell>
        <mxCell id="chPL-nH-4VTMWs8eqsPG-32" value="" style="endArrow=classic;startArrow=classic;html=1;rounded=0;exitX=1;exitY=0.5;exitDx=0;exitDy=0;entryX=0;entryY=0.25;entryDx=0;entryDy=0;" edge="1" parent="1" source="chPL-nH-4VTMWs8eqsPG-1" target="chPL-nH-4VTMWs8eqsPG-11">
          <mxGeometry width="50" height="50" relative="1" as="geometry">
            <mxPoint x="400" y="420" as="sourcePoint" />
            <mxPoint x="450" y="370" as="targetPoint" />
            <Array as="points">
              <mxPoint x="270" y="320" />
              <mxPoint x="270" y="240" />
              <mxPoint x="540" y="240" />
              <mxPoint x="540" y="300" />
            </Array>
          </mxGeometry>
        </mxCell>
        <mxCell id="chPL-nH-4VTMWs8eqsPG-34" value="History energy consumption" style="text;html=1;strokeColor=none;fillColor=none;align=center;verticalAlign=middle;whiteSpace=wrap;rounded=0;" vertex="1" parent="1">
          <mxGeometry x="750" y="520" width="60" height="30" as="geometry" />
        </mxCell>
        <mxCell id="chPL-nH-4VTMWs8eqsPG-35" value="Current energy consumption" style="text;html=1;strokeColor=none;fillColor=none;align=center;verticalAlign=middle;whiteSpace=wrap;rounded=0;" vertex="1" parent="1">
          <mxGeometry x="550" y="520" width="60" height="30" as="geometry" />
        </mxCell>
      </root>
    </mxGraphModel>
  </diagram>
</mxfile>
